<?xml version="1.0" encoding="utf-8"?>
<!-- Generator: Adobe Illustrator 24.0.1, SVG Export Plug-In . SVG Version: 6.00 Build 0)  -->
<svg version="1.1" id="Layer_1" xmlns="http://www.w3.org/2000/svg" xmlns:xlink="http://www.w3.org/1999/xlink" x="0px" y="0px"
	 viewBox="0 0 674.1 604.8" enable-background="new 0 0 674.1 604.8" xml:space="preserve">
<g>
	<linearGradient id="SVGID_1_" gradientUnits="userSpaceOnUse" x1="108.8295" y1="304.1194" x2="543.1505" y2="304.1194">
		<stop  offset="1.385225e-07" style="stop-color:#35AED7"/>
		<stop  offset="1" style="stop-color:#5658FF"/>
	</linearGradient>
	<path fill="url(#SVGID_1_)" d="M543.2,304.1c0,119.9-97.2,217.2-217.2,217.2c-96.2,0-177.8-62.5-206.3-149.2
		c-7-21.4-10.9-44.3-10.9-68C108.8,184.2,206.1,87,326,87c2.9,0,5.8,0.1,8.7,0.2C450.6,91.7,543.2,187.1,543.2,304.1z"/>
	<path fill="#FFFFFF" d="M540,341.1c-3.6,20.8-10,40.3-18.8,58.4c0,0,0,0,0,0s-3.6-29-7.4-30.6c-3.8-1.6-11.5-4.3-9.6-20.3
		c2-16-2.9-39.8-17.5-40.1c-14.6-0.3-10.4,21.7-10.4,21.7s-24.1,39.7-25.2,37c-1.2-2.7-2.3-24.3-2.3-24.3s-22.1-42.9-21.2-49.3
		c0.9-6.4-2.4-8.6,2.4-13.8c4.8-5.3,12.4-9,12.4-9l0-14.5l7.9-8l13.6-7.5c0,0,12.4-0.9,20.7-5.9c8.2-5,18.7-4.3,16-12.1
		c0,0-4.7-5.7-7-11.6c-2.3-5.9-14.9-11.1-16.8-13.9c-2-2.8,0.3-8.9-7.6-15.4c-7.9-6.6-5.9-4-11.5-9.1c-5.7-5.1-18.5-16.3-19.2-21.3
		c-0.8-5-5.6-24.7-20.5-28.1c-15-3.4-17.7-23.2-17.7-23.2C497.3,135.1,558.2,235.8,540,341.1z"/>
	<path fill="#FFFFFF" d="M516.4,408.7C479.6,475.8,408.9,519.6,331,521.3l23.8-18.8c0,0,2.8-11.4,4.3-15.3
		c1.5-3.9,17.4-29.8,17.4-29.8s-1.1-22.2,0.9-33.5c2-11.4,12-17.3,18.6-31.5c6.5-14.2,38.9-7.4,46.8-10.1l26.1,6l19.6,13.5
		C488.5,401.7,503.8,405.6,516.4,408.7z"/>
	<path fill="#FFFFFF" d="M303.9,187.1c-7.6,14.6-27,35-27,35s-2.1,11.9-14.7,17.3c-12.7,5.4,31.7,44.3,16.9,50
		c-14.8,5.7-21.5,15.5-21.5,15.5s-16.2,16.2-17.5,18.6c-1.2,2.4-25.1,14.2-29.8,17.2c-4.7,3-1,5.8-24.6,11.5
		c-23.6,5.7-26.4,12-33.6,19.9c-7.2,8-15.9,9.4-15.9,9.4s-8.2-2.8-16.4-9.5c-7-21.4-10.9-44.3-10.9-68C108.8,184.2,206.1,87,326,87
		c2.9,0,5.8,0.1,8.7,0.2c-11,7.9-35,25.7-43.1,35.8c-10.7,13.3-1,35,4.9,39.4C302.4,166.7,311.5,172.5,303.9,187.1z"/>
	<path fill="#FFFFFF" d="M312.1,161.2c0,0,16.7,15.7,9.8,24.5c-6.9,8.8-20.4,21.3-17.4,25.4c2.9,4.1,15,13.2,25.7,12.3
		c10.7-0.9,24.1-13.5,34.2-21.7c10.1-8.2,25.7-5.8,28.3-7.6c2.6-1.8,7.2-11.5-4-19.6c-11.2-8.2-16.3-13-21.7-16.9
		C361.7,153.8,299.7,148.1,312.1,161.2z"/>
	<path fill="#FFFFFF" d="M273.1,514.8c-7.9-2-15.7-4.4-23.2-7.2c-56.7-21.1-100.8-64.7-123.7-118.3c0,0,19.2,6.7,43.6,2.8
		c24.4-3.9,44-4.5,59.7,9.7c15.7,14.2-8,22.4,2,41.1c9.9,18.8,14.8,9.8,24.6,32.6C260,484.7,268.2,500,273.1,514.8z"/>
	<g>
		<g>
			<polygon fill="#EFC55E" points="342.3,394 205.9,257.6 105.6,357.9 82.6,335 205.9,211.8 342.3,348.1 459.1,231.3 482,254.2 			
				"/>
		</g>
		<g>
			<polygon fill="#EFC55E" points="508.8,284.7 538.4,174.2 427.9,203.8 			"/>
		</g>
	</g>
	<polygon fill="#EFC55E" points="290.8,170.8 262.6,178.3 270.1,185.8 240.7,215.2 205.9,180.3 174.4,211.8 180.3,217.7 
		205.9,192.1 240.7,226.9 275.9,191.7 283.2,199 	"/>
	<path fill="#E4E4E4" d="M430.1,104.4c-1.3,0-2.6,0.3-3.7,0.8c-2.9-5.3-8.5-8.9-15-8.9c-5.4,0-10.2,2.5-13.3,6.4
		c-1.5-0.7-3.3-1.1-5.1-1.1c-6.6,0-11.9,5.3-11.9,11.9h13.2h10.6h16.2h7.4h10.7C439.2,108.4,435.1,104.4,430.1,104.4z"/>
	<path fill="#E4E4E4" d="M116.3,285.7c-1.3,0-2.6,0.3-3.7,0.8c-2.9-5.3-8.5-8.9-15-8.9c-5.4,0-10.2,2.5-13.3,6.4
		c-1.5-0.7-3.3-1.1-5.1-1.1c-6.6,0-11.9,5.3-11.9,11.9h13.2H91h16.2h7.4h10.7C125.3,289.8,121.3,285.7,116.3,285.7z"/>
	<path fill="#E4E4E4" d="M268.5,99.3c-2.1,0-4,0.7-5.5,1.9c-2.5-5.1-7.8-8.6-13.8-8.6c-5.6,0-10.5,3-13.2,7.4
		c-0.7-0.2-1.5-0.3-2.2-0.3c-1.6,0-3.1,0.5-4.4,1.3c-2.3-3.6-6.4-6-11-6c-7.2,0-13.1,5.8-13.1,13.1h20.2h6h2.4h8.3h17.6h4.9h12.6
		C277.2,103.3,273.3,99.3,268.5,99.3z"/>
	<g>
		<g>
			<g>
				<path fill="#FFFFFF" d="M623.4,158.5c-11.4-5.4-24.5-2.5-32.7,6.2c-2,2.1-3.7,4.6-5,7.3c-3.9,8.3-3.5,17.7,0.5,25.2
					c2.8,5.3,7.2,9.7,13,12.4c0.6,0.3,1.2,0.5,1.7,0.8c2.6,1,5.4,1.7,8.1,1.9c11.4,0.9,22.7-5.2,27.9-16.1
					C643.6,182,637.5,165.2,623.4,158.5z M630.5,193.1c-3.9,8.2-12.3,12.8-20.9,12.1c-2-0.2-4.1-0.6-6.1-1.4
					c-0.4-0.2-0.9-0.4-1.3-0.6c-4.3-2.1-7.7-5.4-9.7-9.3c-3-5.7-3.3-12.7-0.4-18.9c1-2.1,2.2-3.9,3.7-5.5c6.1-6.5,16-8.7,24.5-4.6
					C630.9,169.9,635.5,182.5,630.5,193.1z"/>
			</g>
		</g>
		<g>
			<g>
				<path fill="#405BA8" d="M592.5,193.9l-6.3,3.3c-4-7.6-4.5-16.9-0.5-25.2c1.3-2.8,3-5.2,5-7.3l5.2,4.9c-1.5,1.6-2.8,3.4-3.7,5.5
					C589.1,181.2,589.5,188.2,592.5,193.9z"/>
			</g>
		</g>
		<g>
			<g>
				<path fill="#7094FB" d="M603.5,203.8l-2.6,6.6c-0.6-0.2-1.2-0.5-1.7-0.8c-5.8-2.7-10.2-7.2-13-12.4l6.3-3.3
					c2.1,3.9,5.4,7.3,9.7,9.3C602.6,203.4,603.1,203.6,603.5,203.8z"/>
			</g>
		</g>
		<g>
			<g>
				<path fill="#7094FB" d="M609,212.3c-2.7-0.2-5.4-0.8-8.1-1.9l2.6-6.6c2,0.8,4,1.2,6.1,1.4L609,212.3z"/>
			</g>
		</g>
	</g>
	<g>
		<polygon fill="#7094FB" points="602.6,230.9 549.7,230.9 549.7,229.9 601.5,229.9 601.5,207.5 602.6,207.5 		"/>
	</g>
	<g>
		<rect x="549.7" y="218.9" fill="#DEDEDE" width="27.8" height="6.3"/>
	</g>
	<g>
		<g>
			<rect x="560" y="254.3" fill="#FFFFFF" width="10.1" height="66.7"/>
		</g>
		<g>
			<rect x="585" y="267.9" fill="#FFFFFF" width="10.1" height="53.2"/>
		</g>
		<g>
			<rect x="610" y="257.9" fill="#FFFFFF" width="10.1" height="63.1"/>
		</g>
		<g>
			
				<radialGradient id="SVGID_2_" cx="959.7204" cy="702.5298" r="83.3655" gradientTransform="matrix(0.9286 0 0 0.9286 -298.5158 -321.4443)" gradientUnits="userSpaceOnUse">
				<stop  offset="0.1602" style="stop-color:#9EC0E5"/>
				<stop  offset="0.5806" style="stop-color:#71ACFB"/>
				<stop  offset="1" style="stop-color:#6F81F0"/>
			</radialGradient>
			<rect x="560" y="279.2" fill="url(#SVGID_2_)" width="10.1" height="41.9"/>
		</g>
		<g>
			
				<radialGradient id="SVGID_3_" cx="959.7198" cy="702.5298" r="83.3676" gradientTransform="matrix(0.9286 0 0 0.9286 -298.5158 -321.4443)" gradientUnits="userSpaceOnUse">
				<stop  offset="0.1602" style="stop-color:#9EC0E5"/>
				<stop  offset="0.5806" style="stop-color:#71ACFB"/>
				<stop  offset="1" style="stop-color:#6F81F0"/>
			</radialGradient>
			<rect x="585" y="287.7" fill="url(#SVGID_3_)" width="10.1" height="33.4"/>
		</g>
		<g>
			
				<radialGradient id="SVGID_4_" cx="959.7205" cy="702.5299" r="83.3696" gradientTransform="matrix(0.9286 0 0 0.9286 -298.5158 -321.4443)" gradientUnits="userSpaceOnUse">
				<stop  offset="0.1602" style="stop-color:#9EC0E5"/>
				<stop  offset="0.5806" style="stop-color:#71ACFB"/>
				<stop  offset="1" style="stop-color:#6F81F0"/>
			</radialGradient>
			<rect x="610" y="281.5" fill="url(#SVGID_4_)" width="10.1" height="39.6"/>
		</g>
	</g>
	<g>
		<g>
			<rect x="14.6" y="190.9" fill="#5F7DD1" width="64" height="6.3"/>
		</g>
		<g>
			<rect x="14.6" y="207.8" fill="#FFFFFF" width="64" height="6.3"/>
		</g>
		<g>
			<rect x="14.6" y="224.7" fill="#FFFFFF" width="64" height="6.3"/>
		</g>
	</g>
	<g>
		<g>
			<rect x="91.7" y="190.9" fill="#5F7DD1" width="10.7" height="6.3"/>
		</g>
		<g>
			<rect x="91.7" y="207.8" fill="#FFFFFF" width="10.7" height="6.3"/>
		</g>
		<g>
			<rect x="91.7" y="224.7" fill="#FFFFFF" width="10.7" height="6.3"/>
		</g>
	</g>
	<g>
		<path fill="#EEBD5D" d="M339.1,16.4c-0.4-0.4-0.9-0.8-1.6-1.3c-0.7-0.5-1.5-0.9-2.4-1.3c-0.9-0.4-1.9-0.8-3-1.1
			c-1.1-0.3-2.2-0.5-3.4-0.6l0,12.4l1.1,0.2c2.2,0.5,4.1,1.1,5.9,1.8c1.7,0.6,3.2,1.4,4.4,2.4c1.2,0.9,2.1,2.1,2.8,3.4
			c0.7,1.3,1,3,1,4.9c0,2.1-0.4,3.9-1.2,5.4c-0.8,1.5-1.8,2.7-3.2,3.7c-1.3,1-2.9,1.7-4.7,2.2c-1.8,0.5-3.7,0.8-5.7,0.8l0,6.3
			l-3.1,0l0-6.4c-2.9-0.2-5.6-0.8-8.2-1.7c-2.6-0.9-5-2.3-7.1-4l3.1-5.8c0.4,0.5,1.1,1,1.9,1.6c0.8,0.6,1.8,1.1,2.9,1.6
			c1.1,0.5,2.3,1,3.7,1.4c1.3,0.4,2.7,0.7,4.2,0.9l0-12.4c-0.2-0.1-0.5-0.2-0.7-0.2c-0.3-0.1-0.5-0.1-0.8-0.2
			c-2.1-0.6-4-1.2-5.6-1.8c-1.6-0.6-2.9-1.4-3.9-2.3c-1-0.9-1.8-1.9-2.4-3.1c-0.5-1.2-0.8-2.6-0.8-4.3c0-2,0.4-3.7,1-5.2
			c0.7-1.5,1.7-2.8,2.9-3.9c1.2-1.1,2.7-2,4.4-2.6c1.7-0.6,3.5-1,5.5-1.2l0-6.1l3.1,0l0,6.1c2.6,0.2,5,0.7,7.2,1.6
			c2.2,0.9,4.1,2,5.8,3.2L339.1,16.4z M319.2,17.9c0,1.7,0.6,2.9,1.8,3.8c1.2,0.8,3,1.6,5.4,2.2l0-11.8c-2.4,0.1-4.2,0.7-5.4,1.7
			C319.8,14.8,319.2,16.2,319.2,17.9z M336.5,37.9c0-1.8-0.7-3.1-2.1-4c-1.4-0.9-3.4-1.7-5.9-2.5l0,11.9c2.6,0,4.5-0.5,5.9-1.4
			C335.8,41,336.5,39.6,336.5,37.9z"/>
	</g>
	<g>
		<g>
			<path fill="#EEBD5D" d="M671.6,263.5h-34c-1.4,0-2.5-1.4-2.5-3.2c0-1.8,1.1-3.2,2.5-3.2h34c1.4,0,2.5,1.4,2.5,3.2
				C674.1,262.1,673,263.5,671.6,263.5z"/>
		</g>
		<g>
			<path fill="#EEBD5D" d="M657.8,243.3v34c0,1.4-1.4,2.5-3.2,2.5c-1.8,0-3.2-1.1-3.2-2.5v-34c0-1.4,1.4-2.5,3.2-2.5
				C656.4,240.9,657.8,242,657.8,243.3z"/>
		</g>
	</g>
	<g>
		<g>
			<path fill="#EEBD5D" d="M236,51.1h-34c-1.4,0-2.5-1.4-2.5-3.2c0-1.8,1.1-3.2,2.5-3.2h34c1.4,0,2.5,1.4,2.5,3.2
				C238.5,49.7,237.4,51.1,236,51.1z"/>
		</g>
		<g>
			<path fill="#EEBD5D" d="M236,67.1h-34c-1.4,0-2.5-1.4-2.5-3.2c0-1.8,1.1-3.2,2.5-3.2h34c1.4,0,2.5,1.4,2.5,3.2
				C238.5,65.6,237.4,67.1,236,67.1z"/>
		</g>
	</g>
	<g>
		<path fill="#EEBD5D" d="M36.4,291.3h-34c-1.4,0-2.5-1.4-2.5-3.2s1.1-3.2,2.5-3.2h34c1.4,0,2.5,1.4,2.5,3.2S37.8,291.3,36.4,291.3z
			"/>
	</g>
	<g>
		<path fill="#EEBD5D" d="M421.2,52.6c-1.3,0-2.5-0.2-3.6-0.7c-1.1-0.4-2.1-1-2.9-1.8c-0.8-0.8-1.5-1.6-1.9-2.7
			c-0.5-1-0.7-2.1-0.7-3.3c0-1.1,0.2-2.2,0.7-3.3c0.5-1,1.1-1.9,1.9-2.7c0.8-0.7,1.8-1.3,2.9-1.8c1.1-0.4,2.3-0.7,3.6-0.7
			c1.3,0,2.5,0.2,3.6,0.7c1.1,0.4,2.1,1,2.9,1.8c0.8,0.7,1.5,1.6,1.9,2.7c0.5,1,0.7,2.1,0.7,3.3c0,1.2-0.2,2.3-0.7,3.3
			c-0.5,1-1.1,1.9-1.9,2.7c-0.8,0.8-1.8,1.4-2.9,1.8C423.7,52.4,422.5,52.6,421.2,52.6z M415.2,73.2l15.7-18.3l14.5-19l3.4,3
			l-15.2,18l-15,19.3L415.2,73.2z M421.2,48.9c0.6,0,1.1-0.1,1.5-0.4c0.5-0.3,0.9-0.6,1.3-1c0.4-0.4,0.7-0.9,0.9-1.5
			c0.2-0.6,0.3-1.2,0.3-1.8c0-1.3-0.4-2.4-1.2-3.3c-0.8-0.9-1.7-1.4-2.8-1.4c-0.6,0-1.1,0.1-1.5,0.4c-0.5,0.3-0.9,0.6-1.3,1
			c-0.4,0.4-0.7,0.9-0.9,1.5c-0.2,0.6-0.3,1.1-0.3,1.8c0,1.3,0.4,2.4,1.2,3.3C419.2,48.4,420.2,48.9,421.2,48.9z M442.7,76.3
			c-1.3,0-2.5-0.2-3.6-0.7c-1.1-0.4-2.1-1-2.9-1.8c-0.8-0.7-1.5-1.6-1.9-2.6c-0.5-1-0.7-2.1-0.7-3.3c0-1.2,0.2-2.3,0.7-3.3
			c0.5-1,1.1-1.9,1.9-2.7c0.8-0.8,1.8-1.4,2.9-1.8c1.1-0.4,2.3-0.7,3.6-0.7c1.3,0,2.5,0.2,3.6,0.7c1.1,0.4,2.1,1,2.9,1.8
			c0.8,0.8,1.5,1.6,1.9,2.7c0.5,1,0.7,2.1,0.7,3.3c0,1.2-0.2,2.3-0.7,3.3c-0.5,1-1.1,1.9-1.9,2.6c-0.8,0.7-1.8,1.3-2.9,1.8
			C445.2,76.1,444,76.3,442.7,76.3z M442.7,72.6c0.6,0,1.1-0.1,1.5-0.4c0.5-0.3,0.9-0.6,1.3-1c0.4-0.4,0.7-0.9,0.9-1.5
			c0.2-0.6,0.3-1.1,0.3-1.8c0-0.7-0.1-1.3-0.3-1.9c-0.2-0.6-0.5-1.1-0.9-1.5c-0.4-0.4-0.8-0.8-1.2-1c-0.5-0.2-1-0.4-1.5-0.4
			c-0.6,0-1.1,0.1-1.5,0.4c-0.5,0.3-0.9,0.6-1.2,1c-0.4,0.4-0.7,0.9-0.9,1.5c-0.2,0.6-0.3,1.2-0.3,1.8c0,1.3,0.4,2.4,1.2,3.3
			C440.7,72.1,441.6,72.6,442.7,72.6z"/>
	</g>
	<g>
		<g>
			<rect x="488.2" y="68.9" fill="#F2F2F2" width="0.6" height="63"/>
		</g>
		<g>
			<rect x="530.9" y="68.9" fill="#F2F2F2" width="0.6" height="63"/>
		</g>
		<g>
			<rect x="573.6" y="68.9" fill="#F2F2F2" width="0.6" height="63"/>
		</g>
		<g>
			<rect x="616.3" y="68.9" fill="#F2F2F2" width="0.6" height="63"/>
		</g>
		<g>
			<rect x="659.1" y="68.9" fill="#F2F2F2" width="0.6" height="63"/>
		</g>
		<rect x="488.5" y="135.6" fill="#FFFFFF" width="6.8" height="2.2"/>
		<rect x="488.5" y="61.1" fill="#FFFFFF" width="10.2" height="1.6"/>
		<rect x="488.5" y="64.1" fill="#FFFFFF" width="14.5" height="1.6"/>
		<rect x="530.7" y="61.1" fill="#FFFFFF" width="12" height="1.6"/>
		<rect x="530.7" y="64.1" fill="#FFFFFF" width="7.7" height="1.6"/>
		<rect x="574.2" y="61.1" fill="#FFFFFF" width="7.4" height="1.6"/>
		<rect x="574.2" y="64.1" fill="#FFFFFF" width="8.7" height="1.6"/>
		<rect x="616.9" y="61.1" fill="#FFFFFF" width="10.8" height="1.6"/>
		<rect x="616.9" y="64.1" fill="#FFFFFF" width="8.7" height="1.6"/>
		<rect x="659.4" y="61.1" fill="#FFFFFF" width="6.5" height="1.6"/>
		<rect x="659.4" y="64.1" fill="#FFFFFF" width="5.2" height="1.6"/>
		<rect x="531.2" y="135.6" fill="#FFFFFF" width="6.8" height="2.2"/>
		<rect x="574.2" y="135.6" fill="#FFFFFF" width="6.8" height="2.2"/>
		<rect x="616.9" y="135.6" fill="#FFFFFF" width="6.8" height="2.2"/>
		<rect x="659.7" y="135.6" fill="#FFFFFF" width="6.8" height="2.2"/>
		<g>
			
				<radialGradient id="SVGID_5_" cx="939.5194" cy="452.973" r="65.9335" gradientTransform="matrix(0.9286 0 0 0.9286 -298.5158 -321.4443)" gradientUnits="userSpaceOnUse">
				<stop  offset="0.1602" style="stop-color:#9EC0E5"/>
				<stop  offset="0.5806" style="stop-color:#71ACFB"/>
				<stop  offset="1" style="stop-color:#6F81F0"/>
			</radialGradient>
			<path fill="url(#SVGID_5_)" d="M644.6,113.2c-13.3,0-24.9-5.8-37-11.8c-14.9-7.4-30.3-15.1-50.9-13c-13.1,1.3-21.4,6.7-28.6,11.4
				c-6.6,4.3-12.8,8-21.2,8.3c-13.6,0.5-18.3-5.3-18.4-5.6v-3.7l0,0l0,0c0,0.1,3,6.6,18.4,6.5c7.6,0,13.2-3.7,19.7-7.9
				c7.5-4.9,16.1-10.4,29.9-11.8c21.4-2.2,37.2,5.7,52.4,13.3c16,7.9,31.2,15.4,50.5,8.9v3.1C653.9,112.7,649.5,113.2,644.6,113.2z"
				/>
		</g>
		<g>
			<path fill="#FFFFFF" d="M564.6,112.5c-9.8,0-17.6-6.6-25.3-13.1c-5.8-4.9-11.8-9.9-18.7-12.4c-21.2-7.6-32,6.2-32.1,6.4v-4.2
				c0.1-0.1,2-2.7,7.6-5c5.1-2.2,13.6-3.9,25.4,0.2c7.5,2.6,13.7,7.8,19.6,12.9c12.2,10.3,22.7,19.2,40.9,5.3
				c13.8-10.6,26.8-20.6,39.6-24.3c12.5-3.6,25.6-1,37.8,11.3l-0.1,3.8c-26-26.1-48.1-9.6-75.6,11.5
				C576.5,110.3,570.2,112.5,564.6,112.5z"/>
		</g>
	</g>
	<g>
		<g>
			<g>
				<path fill="#FFFFFF" d="M154.1,74.6c-6.3-19.4-23.9-32.1-43.1-33c-4.6-0.2-9.3,0.2-13.9,1.4c-1,0.3-2.1,0.6-3.1,0.9
					c-10.3,3.3-18.6,9.8-24.4,18c-8.3,11.8-11.1,27.3-6.4,42.1c1.6,4.9,3.9,9.4,6.7,13.3c11.8,16.3,33.2,24,53.4,17.4
					C148.4,126.6,162.2,99.7,154.1,74.6z M119.7,123.3c-15.1,4.9-31.2-0.8-40-13.1c-2.1-3-3.9-6.3-5-10c-3.6-11.1-1.5-22.7,4.8-31.6
					c4.3-6.2,10.6-11,18.3-13.5c0.8-0.2,1.5-0.5,2.3-0.7c3.5-0.9,7-1.2,10.4-1c14.4,0.7,27.6,10.2,32.3,24.8
					C148.8,97.1,138.5,117.2,119.7,123.3z"/>
			</g>
		</g>
		<g>
			<g>
				<path fill="#405BA8" d="M79.4,68.7l-9.8-6.9c-8.3,11.8-11.1,27.3-6.4,42.1c1.6,4.9,3.9,9.4,6.7,13.3l9.7-7c-2.1-3-3.9-6.3-5-10
					C71,89.2,73.1,77.6,79.4,68.7z"/>
			</g>
		</g>
		<g>
			<g>
				<path fill="#5F7DD1" d="M100,54.5L97,42.9c-1,0.3-2.1,0.6-3.1,0.9c-10.3,3.3-18.6,9.8-24.4,18l9.8,6.9
					c4.3-6.2,10.6-11,18.3-13.5C98.4,54.9,99.2,54.7,100,54.5z"/>
			</g>
		</g>
		<g>
			<g>
				<path fill="#7094FB" d="M111,41.5c-4.6-0.2-9.3,0.2-13.9,1.4l2.9,11.6c3.5-0.9,7-1.2,10.4-1L111,41.5z"/>
			</g>
		</g>
	</g>
	<g>
		<polygon fill="#EEBD5D" points="108.7,170.9 177.4,170.9 177.4,169.8 109.7,169.8 109.7,137.1 108.7,137.1 		"/>
	</g>
	<g>
		
			<rect x="130.1" y="158.9" transform="matrix(-1 -1.224647e-16 1.224647e-16 -1 307.5139 324.0478)" fill="#DEDEDE" width="47.3" height="6.3"/>
	</g>
	<g>
		<path fill="#26283A" d="M447.5,587.1c0,0-1.9,3.5-3.1,4.9c-1.2,1.4-5.9,3.9-5.9,8c0,4.5,7.9,3.2,11,3.1c3.1-0.2,3.3-2.5,4.6-5.1
			c1.3-2.5,2.6-2.1,2.9-4.1c0.2-2-1.3-6.7-1.3-6.7H447.5z"/>
		<g>
			<path fill="#807F7D" d="M455.6,585.8c0,0,0.4,1.9,0.3,2c-0.1,0-8.8,1.6-8.7,0c0-1.3,0.8-2.7,0.8-2.7L455.6,585.8z"/>
		</g>
		<g>
			<polygon fill="#545888" points="482.5,387.2 469.8,375.8 477.1,369.7 488.5,381.7 			"/>
		</g>
		<g>
			<polygon fill="#3F3D44" points="482.2,386 471.2,376.1 477.5,370.9 487.4,381.2 			"/>
		</g>
		<g>
			<path fill="#D19E80" d="M489.7,387.4c0,0-1.9-0.4-1.3-2.6c0.6-2.2-0.3-2.7-0.3-2.7l-6.7,6.1c0,0,3.2,3,4.2,3.1
				C486.6,391.4,490.7,388.6,489.7,387.4z"/>
		</g>
		<g>
			<path fill="#D19E80" d="M481.4,388.2c0,0-4.1-2.5-4.4-2.8c-0.4-0.4-2.2-2-2.9-3c-0.7-1,2.4-1,3.3,0c0.9,1,1.8,1.2,2.4,1.4
				c0.6,0.2,3.8,0.9,4.6,1.9C484.9,386.6,481.4,388.2,481.4,388.2z"/>
		</g>
		<g>
			<path fill="#D19E80" d="M486.8,380.8c0,0-0.5,0.6-0.9-0.1c-0.4-0.7-0.3-2.3,0.6-1.9C487.6,379.2,486.8,380.8,486.8,380.8z"/>
		</g>
		<g>
			<path fill="#D19E80" d="M485.6,378.7c0,0-0.2,1.2-0.8,0.6c-0.6-0.5-1.2-2.5-0.1-2.5C485.7,376.9,485.6,378.7,485.6,378.7z"/>
		</g>
		<g>
			<path fill="#D19E80" d="M483.9,376.9c0,0,0,1.4-0.7,1c-0.5-0.3-1.3-2.9-0.2-2.8C484,375.2,483.9,376.9,483.9,376.9z"/>
		</g>
		<g>
			<path fill="#363957" d="M483.8,390.9l6.2-5.6l25,20.7c3.8,2.6-4.4,10.2-7.5,9.3c-8.5-2.3-22.9-2.8-30.5-7
				c-11.5-6.4-4.1-17.5-0.4-16.4c3.7,1.1,17.2,8.3,17.2,8.3L483.8,390.9z"/>
		</g>
		<g>
			<path fill="#26283A" d="M494.5,586.5c0,0,3.8,4.3,7.7,5.2c3.9,0.9,6.6,2,6.6,4.5c0,2.4-11.2,4.1-15.6,1.6c-6.6-3.7-7.3-2.6-8-4.4
				c-0.7-1.8,0.9-6.8,0.8-7.4C486,585.2,494.5,586.5,494.5,586.5z"/>
		</g>
		<g>
			<path fill="#807F7D" d="M494.1,584.4c0,0,0.5,2,0.4,2c-0.1,0-8.7,1.1-8.5-0.5c0.2-1.3,0.5-2.7,0.5-2.7L494.1,584.4z"/>
		</g>
		<g>
			<path fill="#2E3048" d="M486.2,464.8c0,0,3.2,30.6,4.8,41.1c1.9,12.3,2.6,22.4,3.1,28.7c0.7,8,0.8,47.2,1.3,49.6
				c0.5,2.3-10.4,0.6-10.4,0.6s-5.4-51.3-7.4-59.8c-1.9-7.9-8.8-42-10.5-39.8c-1.7,2.2-3.8,39.7-5.1,46c-1.3,6.2-5.1,55.1-5.1,55.1
				s-8.7,1.7-11-0.2c0,0-1.1-42.1-0.2-53.8c0.3-4.5-5.2-53.5,1.9-73.2C451.3,448.7,486.2,464.8,486.2,464.8z"/>
		</g>
		<g>
			<path fill="#CD7250" d="M432.2,469.1c0,0,5.3,1.6,7.5,1.2c2.2-0.4,1.1-27.7,1.2-33.4c0.1-4.6,2.6-16.8,2.6-16.8s0,0,0,0
				c0,0,0,0,0,0c0,0,0,0,0,0c0.3,0.9,3.7,13.5,3.8,19.6c0.1,6.3-0.8,30.4-0.8,30.4l8.5,4l29.3,0.8l4.3,0.1c0,0-0.7-14.3-0.9-19.2
				c-0.2-3.1-0.8-8.7-0.6-14.1c0,0-0.1-5.7,0.5-8.2c0.1-10.9,0.7-21.6,0.7-21.6c0.4-4.9,0.6-9.5,0.8-13.8c-1.2-0.6-2.6-1.4-3.8-1.9
				c-3.5-1.7-8.5-4-11.6-5.4c-1.9-0.9-3.7-1.5-3.7-1.5s-12.6-1.2-13.7-1.1c-0.3,0-1.9,0.6-4,1.4c-4.5,1.7-13.1,5.2-14.5,6.2
				c-2,1.4-6.3,35.8-6.5,38.2C430.8,438.3,432.2,469.1,432.2,469.1z"/>
		</g>
		<g>
			<path fill="#DBA585" d="M456.2,388.2c0.9,8.5,10.4,8.5,10.4,8.5s3.9-3.4,3.8-6c0-0.1,0-0.1,0-0.2c-0.1-0.5-0.6-1-0.6-2
				c0-0.1,0-0.3,0-0.4c0-0.1,0-0.3,0-0.4c0-0.6,0-1.3,0.1-1.7c0-0.2,0-0.3,0-0.4c0-0.2,0-0.2,0-0.2s-1.5-1.6-3.5-3.5
				c-3.4-3.3-8-7.6-8.1-5.9c0,0.1,0,0.2,0,0.3C459.2,380.2,456.2,388.2,456.2,388.2z"/>
		</g>
		<g>
			<path fill="#8C8F93" d="M430.5,486.7c0,0,0.5-6.8,2.3-7.8c1.8-1,0.7,1.1,0.7,1.1s-1.1,4.9-1.3,6.9
				C432.2,487,430.5,486.7,430.5,486.7z"/>
		</g>
		<g>
			<g>
				<polygon fill="#8C8F93" points="448.4,491.5 424.5,484.4 424.1,513.9 447.8,528.5 				"/>
			</g>
		</g>
		<g>
			<polygon fill="#8C8F93" points="447.8,528.5 444.8,529.1 421.8,514.3 422.5,484.5 424.5,484.4 			"/>
		</g>
		<path fill="#9D9CA3" d="M462.6,393.2l3.9,3.5c0,0-4.5-0.3-5.4-1.1L462.6,393.2z"/>
		<path fill="#2E3048" d="M487.6,470.5c0,0-18.5,1.6-34.7,0v5.3c0,0,24.3,3.5,35.5-1L487.6,470.5z"/>
		<g>
			<path fill="#363957" d="M471.8,390.1c0,0,3,7.1,5.3,22.9c0.9,6.1,2.5,16.3,3.6,26.7v0c0.9,8.2,3,16.7,3.7,23
				c0.7,6.5,2.8,25.7,2.8,25.7l5.1-3.2c0.7-0.7,1.7-1.5,1.4-2.5c-1.4-4.5-4.1-19.4-5.6-32.3c0,0,0,0,0,0c-0.1-0.6-0.1-1.2-0.2-1.9
				c0,0,0-0.1,0-0.1c-0.3-2.6-0.5-5.1-0.7-7.3c-0.1-1.7,0-3.4,0.2-5.1c0.7-11.6,1.1-23.9,1.1-23.9c0.4-5,0.6-9.7,0.7-14.1
				c-1.2-0.5-2.7-1.6-4-2.2c-2.4-1.1-5.3-2.4-8-3.7c-1.3-0.6-2.8-0.9-3.8-1.3L471.8,390.1z"/>
		</g>
		<g>
			<path fill="#363957" d="M441.3,437.2c-0.4,5.3,1.8,34.5-0.4,34.9c-2.2,0.4-10.4-1.4-10.4-1.4s-1-31.5-0.7-34.8
				c0.2-2.4,4.1-38.4,6.1-39.9c1.2-0.8,9.8-3.9,14-5.6c0.8-0.3,3.2-1.3,3.9-1.6c0.9,1,8.7,19.4,9.5,33.7c0.2,4.4-0.8,13.6-1.6,21.1
				c-0.8,8-1.8,14.3-2.4,21c-1.3,13.2-2.3,23.8-2.3,23.8l-13.2-5.9c-2.1-1.1-5.1-5.4-4.3-7.7c3-8.5,6.9-23.1,6.9-30.6
				c0,0-1.5-18.3-2.6-22.4C443.9,422,441.8,430.5,441.3,437.2z"/>
		</g>
		<g>
			<path fill="#DBA585" d="M438.8,471.7c0,0,0.7,2.9,1.5,5.9c0.9,2.9,1.7,3.9,1.3,5.6c-0.3,1.3-1.7,2.2-2.1,1.8
				c-0.4-0.4-0.5-5.3-2.5-5.4c-2,0,0.5,6.1-0.7,5.6c-1.2-0.5-5.8-3.1-5.5-5.6c0.3-2.5,2.2-4.2,2.2-8c-0.1-3.4,1-4.8,1-4.8
				L438.8,471.7z"/>
		</g>
		<g>
			<g>
				<path fill="#8C8F93" d="M437.3,479.4c0,0,2.7,0.7,2.4,9.9l-3.1-0.6c0,0,0.1-5.1-0.7-7.9C435.9,480.9,436.1,479.1,437.3,479.4z"
					/>
			</g>
		</g>
		<g>
			<path fill="#363957" d="M441.6,451.9l-0.1,23.2c0,0-4.6-0.2-11-2.6l-0.4-32.7L441.6,451.9z"/>
		</g>
		<path fill="#C7C5CE" d="M470.9,393.8c0,0,0.3,4.8-3.8,5c-4.1,0.1-7.3-3.8-7.3-3.8l6.8,1.8l4.1-3.5L470.9,393.8z"/>
		<path fill="#E7E4F0" d="M456.7,386.6c0,0,3.9,5,5.9,6.6l-3.3,5.6l-5.7-9.8L456.7,386.6z"/>
		<path fill="#9D9CA3" d="M470.1,394.1l-3.5,2.6c0,0,3.1-5.6,3.1-8.1L470.1,394.1z"/>
		<polygon fill="#E7E4F0" points="469.7,388.6 472,390.2 474.5,397.7 470.1,394.1 		"/>
		<g>
			<path fill="#DBA585" d="M480.9,363.7c0,0,2.5,6,0.9,6.7c-1.3,0.6,0.8,6.5,1.1,7.4c0.3,1-2.4,1.3-3.1,1.9c-0.6,0.5-3,7.6-5.2,7.6
				c-2.2,0-11.6-4.4-14-7.5c-2.4-3-3.2-15.8-0.9-20.9C461.9,353.8,476.5,353.1,480.9,363.7z"/>
		</g>
		<g>
			<path fill="#2E3048" d="M481.3,365c0,0,3.8-5.8-1.4-11c-5.2-5.2-16.5,1.7-17.8,1.9c-1.2,0.2-8.5,1.7-6,12.5
				c2.3,9.8,2.3,9.9,2.3,9.9s2.8-5.1,4.2-5.9c2.1-1.2,6.2-0.4,6.2-0.4s-1.4-5.5,1.8-6C473.9,365.7,478.3,363.4,481.3,365z"/>
		</g>
		<g>
			<path fill="#DBA585" d="M465.9,368.7c-0.2-0.8-0.8-4-3.7-2.4c-2.9,1.6,0.9,7.9,1.3,8.1C464,374.4,467.5,375,465.9,368.7z"/>
		</g>
		<path fill="#997761" d="M460.9,380.2c0.1,0.2,2.2,5.4,8.8,8c0-0.1,0-0.3,0-0.4c0-0.6,0-1.3,0.1-1.7c0-0.2,0-0.3,0-0.4
			C469.8,385.7,462.7,382.4,460.9,380.2z"/>
	</g>
	<g>
		<path fill="#CD7250" d="M581.4,370.7c-1.3,4.2,0.4,8.3,3.6,9.3c3.3,1,7-1.6,8.2-5.7c1.3-4.2-0.4-8.3-3.6-9.3
			C586.4,363.9,582.7,366.5,581.4,370.7z"/>
		<path fill="#363957" d="M565.4,393c0,0-4.6,1.5-7.3,5.1c-2.6,3.6-3.1,8.7-3.2,11.3c-0.1,2.6-0.8,12.6-0.8,12.6l7.9,2.2L565.4,393z
			"/>
		<g>
			<path fill="#2E3048" d="M532.1,594.7c0,0-5.9,7.9-5.1,9.2c0.8,1.3,7,1.4,10.8,0c3.8-1.4,3.9-10.7,5.6-14.7c0.7-1.7-0.8-6.6-3-7
				c-2.1-0.4-4.5,0.7-4.5,0.7S538.2,588.5,532.1,594.7z"/>
		</g>
		<g>
			<g>
				<path fill="#DBA585" d="M535.9,582.8c0,0-1.2,3.4-1.7,6.6c-0.4,2.7-4.2,8.3-4,9.1c0.2,0.7,5,1.4,7-0.5c2-1.8,3.2-7.2,3.7-10.5
					c0.4-3,0.9-4.5,0.9-4.5S537.8,580.8,535.9,582.8z"/>
			</g>
		</g>
		<g>
			<path fill="#2E3048" d="M583.4,594.8c0,0-5.7,7.8-4.9,9.1c0.8,1.3,7,1.4,10.8,0c3.8-1.4,3.9-10.7,5.6-14.7c0.7-1.7-0.8-6.6-3-7
				c-2.1-0.4-4.7,0.8-4.7,0.8S589.4,588.6,583.4,594.8z"/>
		</g>
		<g>
			<g>
				<path fill="#DBA585" d="M587.2,582.9c0,0-0.4,3.7-1.2,6.3c-0.7,2.6-4.6,8.5-4.4,9.2c0.2,0.7,5,1.4,7-0.5c2-1.8,3.5-7.2,3.7-10.5
					c0.2-3.2-0.4-5.4-0.4-5.4S589.1,581,587.2,582.9z"/>
			</g>
		</g>
		<g>
			<g>
				<path fill="#DBA585" d="M558.9,453.9c0,0-5.1,23.5-6.2,29.4c-1.2,5.9-4.4,34.6-4.8,39.4c-0.3,4.9-5.3,23.2-5,25
					c0.2,1.7-7.3,36.7-7.3,36.7s2.6,2.1,5.3,0.2c1.4-1,16.5-32.7,16.5-41.4c0-12,8.9-27.7,10-30.4c10.7-25,8.6-32.6,10-34.3
					c1.4-1.6,1.5,1,2.3,4.6c0.8,3.6,2.6,34.7,3.6,38.6c1,3.9,0.2,17.3,0.8,24c0.6,6.7,3.1,37.2,3.1,37.2s2,3.1,4.7,0.1
					c0.6-0.6,4.8-33.9,4.9-41.9c0.1-8,0.2-19,0.5-22.5c2.1-33.2,7.4-37.9-0.9-61.4C580.8,413.2,558.9,453.9,558.9,453.9z"/>
			</g>
		</g>
		<g>
			<path fill="#CD7250" d="M592.8,447.3c0,0,14.4,20.1,8.2,63c0,0-34.1,4.6-52.4-5.4c0,0,7.6-44.2,10.3-51.1
				C561.6,447,592.8,447.3,592.8,447.3z"/>
		</g>
		<g>
			<polygon fill="#2E3048" points="543.5,588.4 543.5,596.7 542.5,596.7 542.5,590.3 			"/>
		</g>
		<g>
			<polygon fill="#2E3048" points="595,588.4 595,596.7 593.9,596.7 593.9,590.3 			"/>
		</g>
		<g>
			<path fill="#363957" d="M573.5,390.1c0,0-6.2,2.6-8.1,3c-1.8,0.4-8.1,9.6-9.3,12.9c-1.3,3.4,0,8.5,2.6,14.4c2.6,6,0.1,8,1.3,13.9
				c1.2,6-2.6,18.7-2.8,22c-0.2,3.3,34.6,3.8,41.5-2.2c0,0-6.9-10.3-7.8-11.8c-0.9-1.5-0.1-9.5,0.7-11.6c0.8-2.1,6.2-19.6,6.2-19.6
				s4.4-13.5,0.4-16.6c-3.5-2.7-12.9-3.6-14.6-4.2C581.9,389.8,576.9,389.6,573.5,390.1z"/>
		</g>
		<g>
			<path fill="#DBA585" d="M570.9,384c0,0,0.1,1.3,0.3,3.2c0.1,0.8,0.2,1.7,0.2,2.7c0.2,2.7,0.4,5.6,0.3,7.1c0,0,5.5,5.5,11.8-6.4
				c0,0-2.6-4.9-0.7-11.7C584.9,372,570.9,384,570.9,384z"/>
		</g>
		<polygon fill="#DBA585" points="557.1,428.4 556.2,430.6 558.1,429.2 		"/>
		<g>
			<g>
				<g>
					<path fill="#DBA686" d="M569.1,353.4c0,0-12.4,3.9-5.6,25.2c6.7,21.3,23.6-2.5,21.8-15.5C583.5,350.2,569.1,353.4,569.1,353.4z
						"/>
				</g>
			</g>
		</g>
		<g>
			<g>
				<g>
					<path fill="#CD7250" d="M562.2,365.8c0,0,6.1,6,16.4,6.8c0,0,3.9,4.6,4.3,6.4c0,0,10.8-18-2.1-25
						C567.1,346.6,558,362,562.2,365.8z"/>
				</g>
			</g>
		</g>
		<g>
			<g>
				<g>
					<path fill="#DBA686" d="M578.6,372.5c0.1-1.6,1-5.1,3.3-4.1c2.3,1-0.1,8.2-1.7,7.7C580.3,376.1,578.5,376.2,578.6,372.5z"/>
				</g>
			</g>
		</g>
		<path fill="#997761" d="M571.3,387.1c0.1,0.8,0.2,1.7,0.2,2.7h0c7.1-3.5,8.2-8.6,8.3-8.8C574.3,387.1,571.3,387.1,571.3,387.1z"/>
		<path fill="#2C3D54" d="M555.4,409.3c0,0-0.3,7.5,1.3,11.8l1.5-0.8C558.3,420.3,555.5,412.8,555.4,409.3z"/>
		<g>
			<g>
				<path fill="#DBA585" d="M582.2,433.7c0,0-2.9-1.9-3.3-2.2c-0.4-0.3-2-0.2-3.6,0.3c-1.6,0.5-3.3,1.2-3.8,1.4
					c-0.3,0.1-0.5,0.2-0.4,0.9c0.1,0.7,0.6,1.3,0.6,1.3s-0.3,1,0.4,1.6c0,0-0.2,0.9,0.6,1.5c0,0-0.2,0.9,0.5,1.3c0,0,1.5,0.2,2,0.1
					c0.8-0.2,4.9-1.1,7.7-1.9C583,438.2,584.2,437.5,582.2,433.7z"/>
			</g>
		</g>
		<g>
			<path fill="#DBA585" d="M572.4,433.1c0,0-7.4,1.6-7.3,2.2c0.1,0.8,2,1.1,7.6-0.4C578.1,433.4,572.4,433.1,572.4,433.1z"/>
		</g>
		<path fill="#363957" d="M590.6,393.4c1.7-1,7.3-0.9,9.5,4.3c2.2,5.3,4,11.2,5.5,14c1.5,2.7,6.7,15.3,5.2,16.8
			c-1.5,1.5-4.7,3.3-9.5,4.4c-4.9,1.2-19.3,6.5-19.3,6.5l-1.8-7.8c0,0,6.3-3,9.9-4.5c3.2-1.3,2.8-1.6,8.2-3.5c0,0-3.1-7.8-4.4-9.9
			C592.5,411.7,583.1,398,590.6,393.4z"/>
		<g>
			<path fill="#807A76" d="M571.1,446.9l-19.2-1.5c-0.9-0.1-1.6-0.5-2.1-1.3L530,411.9c-1.1-1.8,0.2-4.1,2.3-4.1l20.5-0.2
				c1,0,1.9,0.5,2.4,1.4l18.5,34C574.8,444.8,573.3,447.1,571.1,446.9z"/>
		</g>
		<g>
			<g>
				<path fill="#DBA585" d="M544.3,435.1c0,0-1.2-1.1-2.3-2.7c-1.1-1.6-4.6-7.6-4.3-7.9c0.3-0.4,5.5-0.5,6.5,0.3
					c0.9,0.9-0.9,1.2-0.9,1.2s2.9,0.3,2.6,1.1c-0.2,0.8-1.9,0.6-1.9,0.6s2.3,0.4,1.9,1.1c-0.3,0.7-1.5,0.7-1.5,0.7s2,0.3,1.8,1
					c-0.2,0.8-3.5,1.5-3,2.1C543.7,433.3,544.3,435.1,544.3,435.1z"/>
			</g>
		</g>
		<path fill="#DBA585" d="M584.5,390.6c0,0-6.9,11.3-12.4,11.1c-5.5-0.1-1.7-10.4-1.7-10.4S574.5,388,584.5,390.6z"/>
		<path fill="#8C8480" d="M548.4,428.5c1.9,1.9,4.4,2.4,5.6,1.1c1.2-1.2,0.7-3.7-1.1-5.6c-1.9-1.9-4.4-2.4-5.6-1.1
			C546.1,424.1,546.6,426.6,548.4,428.5z"/>
		<path fill="#CD7250" d="M561.1,362.9c0,0-0.8,3,0.5,8.1c0,0-0.2-4.9,0.8-6.2C563.5,363.5,561.1,362.9,561.1,362.9z"/>
	</g>
	<linearGradient id="SVGID_6_" gradientUnits="userSpaceOnUse" x1="59.9966" y1="579.6996" x2="160.6451" y2="579.6996">
		<stop  offset="0" style="stop-color:#E59148"/>
		<stop  offset="1" style="stop-color:#F2D05F"/>
	</linearGradient>
	<rect x="60" y="573.6" fill="url(#SVGID_6_)" width="100.6" height="12.2"/>
	<linearGradient id="SVGID_7_" gradientUnits="userSpaceOnUse" x1="67.9668" y1="591.4146" x2="168.6175" y2="591.4146">
		<stop  offset="0" style="stop-color:#DB843A"/>
		<stop  offset="1" style="stop-color:#E4C04C"/>
	</linearGradient>
	<rect x="68" y="585.3" fill="url(#SVGID_7_)" width="100.7" height="12.2"/>
	<linearGradient id="SVGID_8_" gradientUnits="userSpaceOnUse" x1="7.285" y1="567.713" x2="108.3706" y2="567.713">
		<stop  offset="0" style="stop-color:#E79D5A"/>
		<stop  offset="1" style="stop-color:#F2D05F"/>
	</linearGradient>
	<polygon fill="url(#SVGID_8_)" points="108.4,563.8 9.7,583.6 7.3,571.6 106,551.8 	"/>
	<g>
		<path fill="#8E8582" d="M145.7,566.6c0,0-1.4,3.2-2.5,4.5c-1.2,1.3-5.5,3.5-5.6,7.3c-0.1,4.1,7.3,3.1,10.2,3
			c2.9-0.1,3.1-2.3,4.4-4.7c1.2-2.3,2.5-1.9,2.7-3.8c0.3-1.9-0.9-6.1-0.9-6.1L145.7,566.6z"/>
		<g>
			<path fill="#8E8582" d="M209.7,587.5c0,0,4,4.3,8,5.2c4.1,0.9,6.9,2.1,6.9,4.5c0,2.4-11.7,3.9-16.4,1.4c-6.9-3.7-7.6-2.6-8.4-4.5
				c-0.7-1.8,1-6.7,1-7.2C200.7,586.1,209.7,587.5,209.7,587.5z"/>
		</g>
		<g>
			<path fill="#E6D8D1" d="M200.4,466c0,0,3.8,30.6,5.4,40.9c1.9,12.1,2.4,22.1,2.9,28.3c0.6,7.9,1.5,49.2,1.9,51.5
				c0.5,2.3-11,1-11,1s-7.7-53.7-9.7-62.1c-1.9-7.8-6.8-40-8.7-37.9c-1.8,2.1-23.2,25.3-24.6,31.5c-1.4,6.1-2.4,47.4-2.4,47.4
				s-8.2,3.9-10.6,1.9c0,0-5-36.3-4-47.8c0.4-4.4,13.4-41.2,21-60.6C164.9,450,200.4,466,200.4,466z"/>
		</g>
		<path fill="#344B90" d="M189,392.6c0,0,11.1,2.4,12.4,3.6c1.4,1.3,3.8,13.5,3.9,16.9c0.1,3.4-1.6,17.6-3,22.8
			c-1.5,5.3-1.5,32.8-0.9,37.2c0,0-22.4,4.1-44.4,1c0,0,4.1-23.9,3.3-31.1c-1-9.3-3.5-30.7-3.5-30.7s3.1-14.3,5.1-16
			c2-1.6,15.6-4.2,15.6-4.2L189,392.6z"/>
		<path fill="#DBA585" d="M173.9,392.8c0,0,6.1,12.8,15.4,11.8c9.2-0.9,4-9.8,3.1-11.3C192.4,393.4,186.9,389.7,173.9,392.8z"/>
		<path fill="#344B90" d="M218.6,397.6c0,0-13,13.8-13.5,19c-0.4,3.7-2.5-11.2-2.5-11.2L218.6,397.6z"/>
		<g>
			<path fill="#E7B96B" d="M123.6,504.6c-13.2-28.2-1-61.7,27.2-74.9c28.2-13.2,61.7-1,74.9,27.2c13.2,28.2,1,61.7-27.2,74.9
				C170.3,544.9,136.8,532.8,123.6,504.6z"/>
			<path fill="#E7B96B" d="M201.5,530.2l-47.6-101.9c27.5-10.9,59.1,1.4,71.8,28.5C238.4,484,227.6,516.1,201.5,530.2z"/>
			<path fill="#E7B96B" d="M123.6,504.6c-11.2-23.9-4.1-51.6,15.5-67.6l46.3,99C160.6,540.8,134.8,528.5,123.6,504.6z"/>
			<path fill="#E09637" d="M135.8,498.8c-10-21.4-0.8-46.9,20.7-56.9c21.4-10,46.9-0.8,56.9,20.7c10,21.4,0.8,46.9-20.7,56.9
				C171.4,529.5,145.9,520.3,135.8,498.8z"/>
			<g>
				<path fill="#EAC483" d="M169.7,498.8c0.5,0.2,1.2,0.4,2.1,0.5c0.9,0.1,1.8,0.2,2.9,0.2c1.1,0,2.2-0.1,3.3-0.3
					c1.2-0.2,2.3-0.5,3.5-1l-5.5-11.7l-1.2,0.3c-2.3,0.5-4.4,0.8-6.3,0.9c-1.9,0.2-3.7,0.1-5.2-0.3c-1.5-0.3-2.9-1-4.1-2
					c-1.2-1-2.2-2.4-3.1-4.2c-0.9-2-1.4-3.9-1.3-5.6c0.1-1.8,0.5-3.4,1.3-4.9c0.8-1.5,2-2.9,3.4-4.2c1.5-1.3,3.1-2.4,5.1-3.3l-2.8-6
					l2.9-1.4l2.8,6.1c2.8-1.1,5.6-1.8,8.5-2c2.9-0.3,5.7-0.1,8.5,0.6l-0.3,6.8c-0.6-0.3-1.5-0.5-2.5-0.6c-1-0.2-2.2-0.2-3.5-0.2
					c-1.3,0-2.7,0.1-4.1,0.3c-1.4,0.2-2.9,0.6-4.3,1l5.5,11.7c0.3,0,0.5-0.1,0.8-0.1c0.3-0.1,0.5-0.1,0.8-0.1c2.3-0.4,4.3-0.7,6-0.8
					c1.8-0.1,3.3,0,4.7,0.4c1.4,0.4,2.6,1,3.6,1.9c1,0.9,1.9,2.1,2.7,3.7c0.9,1.9,1.3,3.6,1.3,5.4c0,1.7-0.3,3.4-1,5
					c-0.7,1.6-1.7,3-3,4.4c-1.3,1.3-2.8,2.5-4.7,3.5l2.7,5.7l-2.9,1.4l-2.7-5.7c-2.5,1-5,1.6-7.5,1.7c-2.5,0.1-4.8,0-6.9-0.4
					L169.7,498.8z M187.7,488.6c-0.7-1.6-1.9-2.5-3.3-2.8c-1.5-0.3-3.5-0.2-6.1,0.3l5.2,11.2c2.3-1.2,3.7-2.5,4.3-4
					C188.5,491.8,188.4,490.3,187.7,488.6z M162.5,477.5c0.8,1.7,2,2.6,3.7,2.8c1.7,0.2,3.9,0.1,6.6-0.3l-5.2-11.2
					c-2.4,1.2-4.1,2.5-4.9,4C161.8,474.2,161.7,475.8,162.5,477.5z"/>
			</g>
			<path fill="#F7F7F7" d="M209.3,525.2c20.3-15.8,27.8-44,16.4-68.3c-11.3-24.3-37.8-36.7-62.9-31.2L209.3,525.2z"/>
			<path fill="#F7F7F7" d="M185.3,536L139,437c3.5-2.9,7.4-5.3,11.7-7.4c1-0.5,2.1-0.9,3.1-1.3l47.6,101.9c-1,0.5-2,1-3,1.5
				C194.2,533.8,189.8,535.2,185.3,536z"/>
		</g>
		<path fill="#DCA787" d="M148.1,483.4c0,0-0.4-1.1-0.4-1.7c0,0,0.2-1.1,0.2-1.8c0-0.2,0-0.4,0-0.6c0-0.6-0.2-1.8,0.1-3.2
			c0.3-1.4,2-6.1,2-6.1l4.3,0.7l3.8-0.5c0,0,2.7,8.2,2.5,9.5c0,0.1,0,0.3-0.1,0.4c-0.2,1.1-0.9,1.8-1.1,2.4
			c-0.1,0.2-0.9,2.2-1.6,2.4c-0.9,0.3-1.6,0.1-2.1-0.3c0,0-1.7,0.4-2.8-0.1c0,0-1.6,0.5-2.7-0.6
			C150.4,483.9,148.7,484.2,148.1,483.4z"/>
		<path fill="#344B90" d="M168,396c1.5,0.6,3,4.1,1.7,11c-1.3,7.4-3.8,10.6-4.8,12.3c-1,1.7-7.2,13.2-7.2,14.9
			c0,4.5-0.2,16.2-0.1,17.1c0.2,1.5,1,19.3,1,19.3l-9.4,2.2c0,0-1.6-20-2.4-26.1c-0.3-2.4-1-9.1,0-15.7c0.9-6.4,5.7-20.5,6.3-21.6
			C153.7,408.3,158.4,392.1,168,396z"/>
		<g>
			<g>
				<path fill="#DBA585" d="M184.9,355.9c0,0,10.9,1.7,9.2,18.7c-1.7,17-11.3,15.6-11.9,15.6c-0.6,0-9.6,0.3-10.3-20.5
					C171.9,369.8,171.6,354.4,184.9,355.9z"/>
			</g>
		</g>
		<g>
			<g>
				<path fill="#DBA585" d="M190,382c0,0-0.1,9,0.6,10.5c0.7,1.5-8.7,5.6-14.6,0.2c0,0,0.9-8.9,0.5-11.6
					C176.1,378.5,190,382,190,382z"/>
			</g>
		</g>
		<g>
			<g>
				<path fill="#DBA585" d="M194.3,369.8c0,0,1.2-1.3,1.6,0c0.4,1.3-1.6,7-1.7,7.3c0,0-0.2,0.5-0.5,0.2
					C193.4,377.1,194.3,369.8,194.3,369.8z"/>
			</g>
		</g>
		<g>
			<g>
				<path fill="#DBA585" d="M172.2,369.6c0,0-1.2-1.3-1.6,0c-0.5,1.3,1.5,7.1,1.6,7.3c0,0,0.2,0.5,0.5,0.2
					C172.9,376.9,172.2,369.6,172.2,369.6z"/>
			</g>
		</g>
		<g>
			<g>
				<path fill="#454545" d="M194.3,372.4l-1.6,2.1c0,0,0-4.6-0.2-5.3c-0.3-0.7-0.6-2.9-0.8-3.4c-0.2-0.5-8.9,2.6-17.4,0.7
					c0,0,0.4,3.3-0.4,3.6c-0.8,0.3-0.4,5.3-0.4,5.3l-1.3-1.4c0,0-2-13.1-1.5-14.5c0.5-1.4,2-9.6,18.6-4.7c0,0,5.2-1.1,6.2,2.5
					C196.5,360.9,194.3,372.4,194.3,372.4z"/>
			</g>
		</g>
		<g>
			<path fill="#997761" d="M176.5,387.1c0,0,2.5,3.1,6.3,3.1c2.5,0,4.6-0.9,7.1-3.4c0,0-1.3,4.9-7.1,5.3
				C182.8,392.2,178.4,392.5,176.5,387.1z"/>
		</g>
		<g>
			<path fill="#DBA585" d="M233.3,357c0,0-2.1-4.2-2.4-4.9c-0.3-0.7,0-2.6,0.6-4.9c0.6-2.3,2.4-5,2.7-5.2c0.4-0.1,0.7-0.4,1.7-0.2
				s1.7,1.1,1.7,1.1s1.4-0.2,2.2,0.8c0,0,1.3-0.2,2,1.1c0,0,1.3-0.1,1.7,0.9c0,0-0.3,2-0.2,2.8c0.1,0.8-0.9,4.9-2.4,8.7
				C240.8,357.2,238.2,360.3,233.3,357z"/>
		</g>
		<g>
			<path fill="#BD8A6D" d="M235.6,350.7c0,0,1.8,1.5,2.1,2.2c0.3,0.7,4.8-2.2,4.8-2.2S237.6,348.6,235.6,350.7z"/>
		</g>
		<g>
			<path fill="#DBA585" d="M233.3,357c0,0,0.2,3.1-0.4,4.7c-0.6,1.6,4.8,3,4.8,2.9c0-0.1,3.5-8.3,3.5-8.3L233.3,357z"/>
		</g>
		<g>
			<path fill="#C99A7D" d="M234,342.6c0,0-1.3,5.8-0.4,6.1c0.9,0.3,1.4-0.1,1.4-0.1l0.5,2.6c0,0,1.3,1.5,2.6-0.4
				c0,0,1.1,1.6,2.1-0.4c0,0,1.2,0.7,1.8-0.1c0.6-0.8,1.3-4.6,1.3-4.6s-0.2-0.9-1.7-0.9c0,0-0.6-1.3-2-1.2c0,0-0.6-1-2.2-0.8
				c0,0-1.6-2-3.4-0.8C234.2,342,234,342.4,234,342.6z"/>
		</g>
		<g>
			<path fill="#DBA585" d="M230.9,351.9c0,0,2.6-3.1,4.8-4.2c0.5-0.2,1-0.4,1.4,0c0.4,0.4,0.4,1.4-0.7,2.8c-1.1,1.4-1.8,3.7-1.8,3.7
				S233.1,355.4,230.9,351.9z"/>
		</g>
		<g>
			<path fill="#344B90" d="M232.3,383.2c2.7-5,8.6-24.6,8.6-24.6l-8.1-1.8c0,0-4.4,9.8-6.6,16.6c-1,3.3-2.4,6.6-2.7,7.1
				c-0.3,0.5-14.3,10.8-15.8,11.6c-1.5,0.8-7.3,2.7-10.1,5.5c-2.8,2.8-1.5,6.6-1.5,6.6c5.8,7.6,16.7-2.1,16.7-2.1
				S228.6,390.3,232.3,383.2z"/>
		</g>
	</g>
	<g>
		<g>
			<polygon fill="#2E3048" points="338.8,418.3 361.4,430.7 384.2,394.9 356.7,385.4 			"/>
		</g>
		<g>
			<polygon fill="#DCD0C8" points="340.2,417.2 361.4,428.8 382.7,395.4 356.9,386.4 			"/>
		</g>
		<g>
			<path fill="#DBA585" d="M332.5,410.9c0,0,3.9-1.9,5.7-2.9c1.7-1,6.2-2.3,6.5-2.7c0.4-0.3,13.2-1.1,14-1.8
				c0.8-0.7,1.5,1.6-1.8,2.3c-3.3,0.7-8,2.5-8.2,3.8c-0.3,1.3,3.4,1.6,3.8,2.7c0.4,1.1-0.1,0.8-0.6,1.1c-0.5,0.2-4.4-1.9-6.1-1.3
				c-1.7,0.6-4.3-0.2-5.6,0.2c-1.3,0.4-7.6,2.6-7.6,2.6L332.5,410.9z"/>
		</g>
		<g>
			<path fill="#DBA585" d="M362.5,426.2c0,0,3.3-3,4.9-4.2c1.6-1.2,4.6-4.9,5.1-5.1c0.4-0.2,6.2-12,7.1-12.5
				c0.9-0.5-0.9-2.1-2.9,0.8c-2,2.8-5.5,6.5-6.8,6.3c-1.3-0.3-0.2-3.8-1-4.6c-0.9-0.8-0.8-0.2-1.2,0.2c-0.4,0.4,0.1,4.9-1.1,6.2
				c-1.2,1.4-1.4,4.1-2.4,5.2c-0.9,1-5.4,6.2-5.4,6.2L362.5,426.2z"/>
		</g>
		<g>
			<path fill="#454971" d="M291.2,585.5c0,0-0.7,5-0.8,5.7c-0.1,0.7-8-0.4-8-0.4l-0.6-5.9C281.8,584.9,290.2,584.8,291.2,585.5z"/>
		</g>
		<g>
			<path fill="#2E3048" d="M290.5,590.6c0,0,2.5,3,4.9,4.3c2.4,1.3,6.2,1.8,7.6,3.2c1,1,3.8,5.2-6.3,5.1c-10-0.1-14.9,0.6-15.9-1
				c-1.1-1.6,1.6-11.9,1.6-11.9S284.8,591.1,290.5,590.6z"/>
		</g>
		<g>
			<path fill="#454971" d="M347.7,585.5c0,0-0.7,5-0.8,5.7c-0.1,0.7-8-0.4-8-0.4l-0.6-5.9C338.2,584.9,346.7,584.8,347.7,585.5z"/>
		</g>
		<g>
			<path fill="#2E3048" d="M346.9,590.6c0,0,2.5,3,4.9,4.3c2.4,1.3,11.3,2.4,12.7,3.7c1,1,2.7,4.9-11.4,4.5c-10-0.3-14.9,0.6-15.9-1
				c-1.1-1.6,1.6-11.9,1.6-11.9S341.1,591.2,346.9,590.6z"/>
		</g>
		<g>
			<path fill="#2E3048" d="M297.7,457.8c0,0-7.4,11.8-6.8,22.4c0.6,10.6-2.7,22.2-3.8,33.3c-1.2,12.4-6.3,41.7-6.5,48.3
				c-0.2,6.6,0.8,27.8,0.8,27.8l10.2,0.2c0,0,8.5-51.2,10.7-56.5c2.2-5.2,13.2-42.5,13.5-46.7C316.2,482.5,297.7,457.8,297.7,457.8z
				"/>
		</g>
		<g>
			<path fill="#2E3048" d="M336.7,459.4c0,0,5.6,29.1,6.3,35.6c0.7,6.5,1.2,31.5,1.6,35.6c0.4,4.1,2.5,53.2,4.4,59.3h-13
				c0,0-10-35.7-10-52.6c0-16.9-7.7-36.8-12.7-47.9c-5-11.2-16.3-11.4-19.4-32.1C294,457.2,332.6,452.8,336.7,459.4z"/>
		</g>
		<g>
			<path fill="#DBA585" d="M310.1,358.9c0,0,9.9-3.7,14.5,3.9c4.6,7.6,4.1,22.7-0.9,24.6c-5,1.9-12.5,0.9-15.1-3.8
				c-2.6-4.7-4.9-11.6-4.8-16.1C304,362.8,307.5,360.2,310.1,358.9z"/>
		</g>
		<g>
			<path fill="#DBA585" d="M322.7,387.7c0,0-0.4,2.7,0.3,4c0.7,1.3-12.9,1.4-12.9,1.4s-1.1-7.2-3.2-13.3
				C304.8,373.7,322.7,387.7,322.7,387.7z"/>
		</g>
		<g>
			<path fill="#3E4148" d="M306.9,379.8c0,0,0.9,1.5,4.8,0.9c3.8-0.6,8.5-5.7,10.1-6.2c1.6-0.6,1.6-1.5,1.6-1.5l1,1.5l1.7,0.1
				c0,0-1.5-4.5,0.8-6.4c2.3-1.9-2.4-14.7-14.7-10.4c0,0-9.4,2.6-9.1,7.9C303.4,371,304.8,377.1,306.9,379.8z"/>
		</g>
		<g>
			<path fill="#DCD0C8" d="M323.7,391.5c0,0,0-2.5-1.2-2.8c-1.1-0.2-12.6-1.3-14-0.8v2.9C308.5,390.9,311.2,392.6,323.7,391.5z"/>
		</g>
		<g>
			<path fill="#DBA585" d="M323.1,371c-0.2-0.9-2.5-3.5-3.4-0.7c-0.9,2.7,1.3,6.4,2.5,6.1C323.5,376.1,323.6,373.3,323.1,371z"/>
		</g>
		<g>
			<path fill="#363957" d="M369.3,421.3C369.3,421.3,369.3,421.3,369.3,421.3C369.4,421.4,369.4,421.4,369.3,421.3z"/>
		</g>
		<g>
			<path fill="#363957" d="M289.4,485.8c0,0,6.1,1.8,16.5,2.9c10.4,1.1,36.4-0.4,36.5-1.6c0.2-1.2-5.6-45.7-5.3-48
				c0.3-2.3,0.5-10.5,0.5-10.5c0.1,2.2,2.4,11.4,5.2,16.4c1,1.8,4.3,7.4,5.9,6.2c7.8-6.2,19.8-29.6,20.6-29.8
				c-0.6-0.3-5.7-2.6-6.4-2.8c-0.6-0.2-6.2,5.7-9.6,9.4c-1.5,1.6-2.6,2.8-2.6,2.8c-1-2.2-4.6-16.1-5.7-20.9
				c-2.5-10.9-2.1-11.3-2.1-11.3c-7.6-2.3-19.1-7-19.1-7l-15.2-0.6c0,0-14,3.1-19.5,5.6c-0.5,0.2-0.5,12.5-2,15.7l4.6,9.6
				c0,0,2.6,19.1,3.2,27.5C295.1,453.2,289.4,485.8,289.4,485.8z"/>
		</g>
		<g>
			<path fill="#363957" d="M286.4,428c0.4,1.3,2.2,2.4,3.4,2.8c0.8,0.3,1.6,0.4,2.4,0.2l0.6-0.1l0,0l10.4-1.9
				c0,0,2.3-26.3-14.3-32.6C288.6,396.6,282.8,416.2,286.4,428z"/>
		</g>
		<g>
			<path fill="#2A2C41" d="M289.8,430.8L289.8,430.8c0.8,0.3,1.6,0.4,2.4,0.2l0.6-0.1l0,0l-1-13.4L289.8,430.8z"/>
		</g>
		<g>
			<path fill="#2A2C41" d="M350.7,430.7l1.3,5.4c0,0,1.4-5.4,1.3-8.2C351.7,429.6,350.7,430.7,350.7,430.7z"/>
		</g>
		<g>
			<path fill="#3E4148" d="M307.3,359.8c0,0-13-1.5-0.2,20.3L307.3,359.8z"/>
		</g>
		<g>
			<polygon fill="#2E3048" points="373.7,393 375,390.7 364.6,387.2 363.3,389.4 			"/>
		</g>
	</g>
</g>
</svg>
