<?xml version="1.0" encoding="utf-8"?>
<!-- Generator: Adobe Illustrator 24.0.1, SVG Export Plug-In . SVG Version: 6.00 Build 0)  -->
<svg version="1.1" id="Layer_1" xmlns="http://www.w3.org/2000/svg" xmlns:xlink="http://www.w3.org/1999/xlink" x="0px" y="0px"
	 viewBox="0 0 479.5 133.9" style="enable-background:new 0 0 479.5 133.9;" xml:space="preserve">
<g>
	<path style="fill:#1C1C1C;" d="M186.5,111.1h-41.1c1.1,8.9,8.3,14.8,18.3,14.8c5.9,0,10.9-2,14.6-6.1l5.1,5.9
		c-4.6,5.3-11.6,8.2-20,8.2c-16.3,0-27.2-10.8-27.2-25.9c0-15,10.8-25.8,25.4-25.8s25,10.5,25,26.1
		C186.7,109.1,186.6,110.3,186.5,111.1z M145.4,104.5h32.5c-1-8.5-7.4-14.5-16.2-14.5C152.9,90,146.4,95.9,145.4,104.5z"/>
	<path style="fill:#1C1C1C;" d="M226.6,82.3v8.9c-0.8-0.1-1.4-0.1-2.1-0.1c-9.8,0-15.9,6-15.9,17.1v25.2h-9.2V82.8h8.8v8.5
		C211.4,85.3,217.7,82.3,226.6,82.3z"/>
	<path style="fill:#1C1C1C;" d="M268.4,130.4c-2.8,2.4-7,3.5-11.1,3.5c-10.2,0-16-5.6-16-15.9V90.3h-8.6v-7.5h8.6V71.7h9.2v11.1H265
		v7.5h-14.5v27.4c0,5.4,2.9,8.5,7.9,8.5c2.7,0,5.3-0.9,7.2-2.4L268.4,130.4z"/>
	<path style="fill:#1C1C1C;" d="M277.9,67.1c0-3.3,2.7-6,6.2-6c3.5,0,6.2,2.6,6.2,5.8c0,3.4-2.6,6.1-6.2,6.1
		C280.5,73,277.9,70.4,277.9,67.1z M279.5,82.8h9.2v50.6h-9.2V82.8z"/>
	<path style="fill:#1C1C1C;" d="M301.5,108.1c0-15.1,11.2-25.8,26.7-25.8c9.1,0,16.6,3.7,20.6,10.8l-7,4.5c-3.2-5-8.2-7.3-13.8-7.3
		c-9.9,0-17.4,7-17.4,17.8c0,11,7.4,17.9,17.4,17.9c5.5,0,10.5-2.3,13.8-7.3l7,4.4c-4,7.1-11.6,10.9-20.6,10.9
		C312.6,133.9,301.5,123.1,301.5,108.1z"/>
	<linearGradient id="SVGID_1_" gradientUnits="userSpaceOnUse" x1="346.7999" y1="78.3803" x2="469.3472" y2="147.2779">
		<stop  offset="1.385225e-07" style="stop-color:#35AED7"/>
		<stop  offset="1" style="stop-color:#5658FF"/>
	</linearGradient>
	<path style="fill:url(#SVGID_1_);" d="M375.4,78.9v17.7h30.9V109h-30.9v24.4h-15.5V66.5h50.5v12.4H375.4z"/>
	<linearGradient id="SVGID_2_" gradientUnits="userSpaceOnUse" x1="361.1563" y1="52.8448" x2="483.7036" y2="121.7424">
		<stop  offset="1.385225e-07" style="stop-color:#35AED7"/>
		<stop  offset="1" style="stop-color:#5658FF"/>
	</linearGradient>
	<path style="fill:url(#SVGID_2_);" d="M461.7,133.4l-16.1-23.2l-15.9,23.2h-17.8l24.7-34l-23.5-32.8h17.6l15.4,21.7l15.1-21.7h16.7
		l-23.3,32.3l24.9,34.6H461.7z"/>
	<linearGradient id="SVGID_3_" gradientUnits="userSpaceOnUse" x1="24.7384" y1="65.0069" x2="92.13" y2="135.2221">
		<stop  offset="1.385225e-07" style="stop-color:#35AED7"/>
		<stop  offset="1" style="stop-color:#5658FF"/>
	</linearGradient>
	<polygon style="fill:url(#SVGID_3_);" points="22.1,65.6 49.4,65.6 95.1,133.4 66.4,133.4 	"/>
	<linearGradient id="SVGID_4_" gradientUnits="userSpaceOnUse" x1="65.8938" y1="132.0312" x2="178.4642" y2="7.2249">
		<stop  offset="1.385225e-07" style="stop-color:#35AED7"/>
		<stop  offset="1" style="stop-color:#5658FF"/>
	</linearGradient>
	<polygon style="fill:url(#SVGID_4_);" points="66.4,133.4 143.8,28.8 133.4,20.6 177,0 174,48.7 162.2,40.6 95.1,133.4 	"/>
	<linearGradient id="SVGID_5_" gradientUnits="userSpaceOnUse" x1="10.8937" y1="100.2119" x2="39.0222" y2="62.8936">
		<stop  offset="1.385225e-07" style="stop-color:#35AED7"/>
		<stop  offset="1" style="stop-color:#5658FF"/>
	</linearGradient>
	<polygon style="fill:url(#SVGID_5_);" points="28.8,96.2 49.4,65.6 22.1,65.6 0,96.2 	"/>
</g>
</svg>
